<svg width="124" height="141" viewBox="0 0 124 141" fill="none" xmlns="http://www.w3.org/2000/svg">
<path d="M10.8872 1.37974C11.4862 1.37974 14.0318 2.42209 16.5775 3.46442C20.92 5.40018 21.519 5.69799 24.2143 8.97389C27.2092 12.5476 33.6481 22.822 33.0492 23.1198C33.0492 23.1198 33.6481 24.3111 34.5466 25.5023C36.044 26.9914 36.4933 27.4381 36.3435 26.6936C36.3435 26.0979 36.1938 25.6512 35.8943 25.6512C35.8943 25.6512 35.4451 24.6089 35.4451 23.4177C35.4451 22.2264 35.2953 21.1841 35.1456 20.7374C34.8461 20.4396 34.9958 20.2907 35.4451 20.4396C35.7445 20.7374 36.044 20.4396 35.8943 19.9929C35.8943 19.695 35.4451 19.5461 35.2953 19.3972C35.1456 19.5461 34.9958 19.0994 35.2953 18.8016C35.5948 18.5038 35.8943 17.3126 35.7445 16.2702C35.5948 15.2279 35.4451 14.7812 35.2953 15.5257C35.2953 16.1213 34.9958 16.4191 34.8461 15.9724C34.5466 15.6746 34.6964 14.9301 35.1456 14.4834C35.5948 14.0367 36.044 12.6965 36.1938 11.6542C36.4933 10.4629 36.7927 9.56952 37.242 9.42061C37.3917 9.27171 37.8409 8.82498 37.9907 8.37826C38.1404 7.93155 38.2902 7.18702 38.8892 6.88921C39.3384 6.4425 40.0871 7.18704 41.1353 9.71842C42.3332 12.6965 42.483 13.1432 41.5845 13.441C40.6861 13.7388 40.6861 13.7388 41.1353 12.9943C41.4348 12.6965 41.285 11.952 40.5363 11.2075C39.9373 10.6118 39.4881 10.1651 39.4881 10.1651C39.0389 11.2075 37.8409 21.9286 37.9907 22.971C38.1404 23.7155 38.5897 25.3534 39.0389 26.3957C39.6379 27.8848 40.0871 28.3315 40.6861 28.0337C41.7343 27.2892 43.3814 23.2688 42.9322 22.5242C42.6327 22.2264 42.7825 21.7797 43.5312 21.333C44.2799 20.8863 44.1302 20.7374 43.6809 20.5884C43.2317 20.4395 43.082 19.9928 43.2317 19.5461C43.5312 19.2483 43.2317 18.6527 42.9322 18.6527C42.483 18.5038 42.0337 17.7593 42.0337 16.568C42.0337 15.079 42.0337 14.7812 42.483 15.2279C42.9322 15.6746 42.9322 15.6746 42.6327 14.7812C41.884 12.2498 43.5312 13.2921 44.2799 15.8235C45.9271 21.0352 45.6276 24.0133 42.1835 28.9271C40.8358 30.8629 40.8358 31.1607 42.1835 33.0965C42.9322 34.1388 44.2799 35.7768 45.0286 36.5213C45.7773 37.2658 46.526 38.0103 46.2266 38.3081C46.0768 38.457 47.2748 40.5417 48.9219 42.4775C50.4194 44.5621 52.2163 46.9446 52.8153 47.5402L53.8635 48.5825C53.7137 48.7315 53.7137 45.4556 53.7137 45.4556C53.7137 43.6687 53.8635 41.4351 54.0132 40.6906C54.163 39.6483 53.7137 38.606 51.9168 36.8191C49.3712 34.2877 47.8737 31.3096 48.9219 30.5651C49.9701 29.8206 52.5158 31.4585 53.564 33.3943C54.4624 35.1811 54.6122 35.33 55.2111 34.7344C56.1096 33.841 55.9598 33.6921 54.7619 32.7987C54.3127 32.3519 53.7137 32.0541 53.7137 32.0541C53.7137 32.0541 54.0132 31.7563 54.7619 31.9052H56.2593L55.8101 29.6716C54.6122 24.0133 49.9701 16.7169 49.2214 18.9505C48.9219 19.5461 48.9219 22.822 49.3712 23.2687C49.5209 23.4176 49.6706 24.46 49.6706 25.3534C49.8204 27.2892 47.8737 21.4819 47.4245 18.9505C47.125 17.4615 47.724 14.7812 48.0235 15.6746C48.0235 15.6746 48.323 15.9724 49.0717 15.8235C50.4194 15.3768 53.4142 19.2483 55.6604 24.46L57.9065 29.3739L58.5055 27.587C58.805 26.6936 59.2542 23.8644 59.7034 21.333C60.0029 18.9505 60.9014 14.7812 61.6501 12.2498C62.848 8.37829 63.1475 7.48483 64.3455 6.88921C65.9926 6.14469 66.4418 6.2936 67.7895 10.0162C69.7362 14.6323 69.7362 16.4191 68.5383 19.695C67.4901 21.9286 66.5916 23.1198 63.447 25.6512C61.3506 27.4381 59.5537 29.2249 59.2542 29.8206C58.805 30.8629 59.2542 30.714 62.6983 29.6717C69.287 27.2892 76.3249 29.2249 74.8275 32.7987C74.3782 33.841 68.3885 37.4147 64.4952 39.2016C62.9978 39.7972 60.7516 40.2439 59.4039 40.095C56.8583 39.6483 56.5588 40.2439 56.4091 43.6687L56.2593 45.6045L57.9065 44.5621C62.3988 41.584 68.5383 40.8395 67.3403 43.5198C66.8911 44.2643 59.7034 47.5402 58.805 47.2424C58.6552 47.0935 58.0563 47.3913 57.4573 47.6891C56.7086 48.4337 57.1578 49.7738 59.7034 56.4745C62.9978 64.8132 64.4952 68.0891 64.1957 66.0044C64.046 65.2599 64.3455 65.2599 64.9444 65.8555C65.5434 66.4511 65.6932 66.6 65.3937 65.7066C65.2439 65.2599 65.2439 64.3665 65.3937 63.9197C65.6932 63.6219 65.5434 62.5796 65.0942 62.4307C63.5967 60.9417 65.5434 53.9431 68.3885 51.7096C69.1372 50.9651 69.8859 50.2205 69.7362 49.7738C69.4367 47.9869 72.4316 51.5606 73.6295 54.2409C75.127 57.8146 75.2767 60.0482 74.6777 65.7066C74.3782 70.1737 73.1803 72.2584 70.4849 74.6409L68.8378 76.2788L71.5331 81.9372C73.1803 85.0642 74.6777 88.3401 75.127 89.0846C75.7259 90.5737 75.8757 90.4248 76.3249 88.7868C76.6244 87.8934 76.6244 87 76.3249 87C76.1752 86.8511 76.1752 85.362 76.6244 83.4263C77.3731 79.108 79.3198 76.2788 81.1167 76.5767C82.6141 76.8745 85.01 81.6394 84.8603 84.1708C84.8603 85.6599 85.1598 86.2555 86.6572 87.1489C89.0531 88.6379 90.9997 90.5737 90.7002 91.1693C90.5505 91.3182 90.9997 92.3606 91.5987 93.254L92.9464 94.5941C92.7966 94.743 92.9464 90.7226 92.9464 90.7226C93.2458 86.8511 92.9464 86.5533 91.2992 85.2131C87.4059 81.9372 83.9618 77.3212 84.5608 75.8321C85.01 74.7898 86.5074 75.6832 89.8018 78.6613C91.7484 80.5971 93.3956 81.9372 93.6951 81.9372C94.7433 81.4905 93.5454 79.4058 90.251 76.7256C88.4541 74.9387 86.6572 73.1518 86.3577 72.854C85.9085 72.4073 85.3095 71.5139 84.411 70.9183C83.5126 70.3226 83.2131 69.727 83.2131 69.4292C83.3628 69.2803 83.2131 68.8336 82.7639 68.6847C82.4644 68.3869 81.2664 66.6 80.2182 64.0687C78.1218 59.3037 78.4213 58.1125 81.4162 59.3037C83.6623 60.346 89.652 64.5154 89.8018 65.2599C89.9515 65.4088 90.4007 66.1533 90.85 66.6001C91.2992 67.0468 92.3474 68.6847 92.9464 70.1738C94.4438 73.4497 95.0428 73.7475 95.6417 71.6628C95.9412 70.7694 96.5402 68.3869 97.2889 66.1533C98.6366 61.8351 98.3371 61.2395 94.893 61.6862C92.1977 61.984 82.9136 58.1125 81.7156 56.0278C81.1167 55.4322 80.5177 54.8366 80.6674 54.9855C80.5177 55.1344 80.5177 54.8365 80.368 54.092C80.2182 53.3475 79.6193 52.7519 78.7208 52.4541C77.8223 52.1563 77.3731 51.7096 77.6726 51.4117C77.9721 51.1139 77.6726 50.5183 77.2234 50.0716C76.3249 49.1782 76.0254 47.6891 76.9239 47.0935C77.3731 46.6468 80.2182 47.0935 83.812 47.6891C89.8018 48.8804 96.8397 53.4964 98.6366 57.0701C99.0858 58.1125 99.2356 58.2614 99.535 57.3679C100.284 55.73 99.6848 54.2409 98.0376 52.603C97.1392 51.7096 95.7915 49.476 95.0428 47.838C94.2941 46.2001 93.5454 44.5621 93.2459 44.5621C93.2459 44.5621 92.6469 43.6687 92.4972 42.6264C92.1977 41.7329 91.2992 39.3504 90.5505 37.4147C89.8018 35.4789 89.2028 33.6921 89.3525 33.2453C89.652 32.9475 89.5023 32.5009 89.0531 32.6498C88.9033 32.7987 88.4541 32.352 88.3043 31.9052C88.3043 31.3096 88.6038 31.0118 88.9033 31.3096C89.2028 31.6074 89.2028 31.0118 88.9033 30.1184C88.4541 29.3738 88.3044 28.3315 88.4541 27.8848C88.6038 27.4381 88.7536 25.5023 89.0531 23.4176C89.5023 19.695 89.652 19.5461 91.5987 20.5884C91.8982 20.8863 92.3474 21.333 92.4972 21.4819C92.6469 21.6308 93.3956 22.9709 94.4438 24.3111C97.7382 28.7782 101.032 37.4147 101.332 42.4775C101.332 43.6687 101.482 45.9023 101.781 47.3913C102.081 48.8804 101.931 50.2205 101.781 50.3694C101.631 50.5183 101.482 50.6672 101.931 50.8161C102.081 50.965 102.68 50.6672 102.829 49.9227C103.279 48.8804 107.771 45.6045 110.466 44.4132C114.21 42.7753 121.697 40.9884 122.895 41.584C124.392 42.1796 124.392 42.1796 122.745 45.0088C121.997 46.6468 120.05 48.8804 118.103 50.5183C116.456 52.1563 115.108 53.4964 114.959 53.6453C114.509 54.3898 111.365 55.73 109.718 55.8789C108.969 56.0278 108.07 55.73 107.771 55.4322C107.471 55.1344 107.471 55.1344 107.621 55.5811C107.771 56.0278 107.172 56.3256 106.423 56.4745C105.675 56.6234 104.177 57.2191 103.129 57.9636C101.332 59.1548 101.032 59.7504 100.583 61.6862C100.284 62.8774 99.8345 65.111 99.3853 66.7489C98.4869 70.0248 99.2356 70.1738 101.182 67.0467C105.225 60.346 109.867 57.5169 116.007 57.9636C120.2 58.2614 121.697 58.857 121.098 60.346C120.649 61.0906 120.948 61.0905 121.547 60.7927C122.146 60.1971 122.296 60.6439 121.547 61.984C120.349 64.0687 111.215 70.7694 107.621 72.2584C106.124 72.854 103.279 74.1942 101.033 75.5343C97.5884 77.4701 96.8397 77.9168 96.8397 79.108C96.9894 79.8526 96.3905 81.3416 95.9412 82.3839C94.5936 84.9153 95.492 85.2131 97.4387 82.6817C99.0858 80.4482 103.129 78.8102 107.621 78.2146C111.365 77.7679 112.712 78.5124 111.215 80.2993C109.867 81.9372 103.129 85.6599 99.9843 86.4044C95.1925 87.5956 94.7433 87.7445 94.7433 88.6379C94.7433 89.2336 95.0428 89.5314 95.3423 89.5314C95.9412 89.5314 95.9412 90.4248 95.0428 93.7007C94.4438 96.0832 95.1925 96.8277 96.091 94.743C97.7382 90.7226 108.969 85.5109 109.568 88.489C109.867 89.6803 109.568 90.2759 107.471 92.9562C104.926 96.381 102.081 98.9124 98.4869 100.699L95.3423 102.337L95.9412 110.676L97.5884 109.038C99.6848 106.06 101.781 104.869 104.926 103.528C109.867 101.593 110.167 102.784 106.274 111.123C104.776 114.101 103.878 115.59 101.781 117.377L99.2356 119.908L100.883 122.142C102.081 123.333 102.829 124.673 103.129 124.673C103.129 124.673 103.728 124.077 103.878 123.035C104.477 120.95 106.423 119.014 107.621 119.312C108.669 119.461 108.52 121.397 107.022 124.971L105.824 127.651L107.921 129.736C109.119 130.927 110.317 132.118 110.616 132.416C110.916 132.714 112.712 134.203 114.36 135.543C115.857 137.032 117.654 138.223 118.253 138.521C119.151 138.819 119.451 140.606 118.852 140.904C118.103 141.35 115.707 140.159 114.36 139.117C113.611 138.372 112.712 137.777 112.263 137.33C111.964 137.032 109.867 135.245 107.621 133.309C105.525 131.225 103.428 129.736 103.129 129.438C102.829 129.14 101.631 129.438 100.284 129.885C96.6899 130.778 92.3474 130.629 90.1013 129.587C88.9033 128.991 88.1546 128.247 88.4541 127.949C88.7536 127.353 92.9464 125.566 94.893 125.417C95.6417 125.269 97.1392 125.566 98.0376 125.864C100.434 126.46 100.883 126.311 99.0858 124.822C98.3371 124.077 97.7382 123.482 98.0376 123.184C98.3371 122.886 98.0376 122.588 97.2889 122.439C96.6899 122.142 96.2407 121.695 96.3905 121.546C96.5402 121.397 95.492 120.652 94.1443 119.908C91.8982 118.866 91.5987 118.866 90.5505 120.206C89.5023 121.844 85.4592 124.375 82.4644 125.566C80.0685 126.46 75.7259 126.906 74.6777 126.46C73.4798 125.864 74.528 125.12 76.0254 125.12C78.8705 125.269 82.3146 123.928 85.7587 121.695C90.1012 118.866 90.9997 117.079 86.9566 119.015C85.4592 119.61 83.0633 120.801 81.7156 121.546C80.368 122.29 79.0203 122.737 78.7208 122.737C78.4213 122.439 80.2182 120.95 80.9669 120.504C81.1167 120.355 82.7638 119.61 84.411 118.866L87.5556 117.525L84.8603 117.823C78.2716 118.717 74.8275 120.355 73.4798 123.482C73.1803 124.375 72.5813 124.971 72.4316 124.524C72.1321 124.226 72.5813 123.184 72.8808 121.993C73.4798 120.206 74.2285 119.759 79.0203 117.972L84.411 115.888L81.5659 115.143C77.3731 113.952 75.5762 113.654 72.8808 113.356C70.6347 112.909 70.3352 113.207 69.4367 114.994C67.9393 117.377 64.7947 120.206 61.5004 121.695C58.805 122.886 53.2645 123.333 52.6655 122.439C51.6173 121.099 54.9117 117.228 58.6552 114.994C59.7034 114.25 60.7516 113.803 60.7516 113.505C61.0511 112.909 56.1096 113.356 55.0614 114.101C46.9753 120.95 42.1835 123.631 40.5363 122.29C39.9373 121.695 39.7876 121.546 40.0871 122.439C40.6861 123.035 40.0871 123.333 38.2902 123.333C35.2953 123.333 32.7497 122.29 32.8994 120.95C33.0492 118.717 42.0338 113.654 46.6758 113.505C48.0235 113.356 49.0717 113.207 49.2214 113.058C49.2214 113.058 47.125 112.463 44.5794 112.016C40.2368 111.271 39.7876 111.42 34.9958 113.207C29.9046 115.292 26.6102 115.887 23.4656 115.143C22.4174 114.994 20.7702 114.547 20.0215 114.398C19.1231 114.101 18.3744 113.654 18.2246 112.909C17.7754 111.271 20.6205 109.336 25.7118 108.144L30.0543 107.102L27.9579 106.209C20.92 103.082 14.7805 99.0613 12.9836 96.6788C11.4862 94.8919 11.3364 93.5518 12.2349 92.9562C13.2831 92.5095 20.4708 95.7854 24.2143 98.6146C27.0594 100.848 29.6051 103.38 29.7548 104.72C29.9046 105.166 30.0543 105.315 30.0543 105.017C30.204 104.869 30.5035 104.869 30.6533 105.613C31.1025 106.06 32.1507 106.804 33.9476 107.102L36.7927 107.847L35.1456 106.209C34.0974 105.464 32.5999 103.677 31.7015 102.188C30.9528 100.848 30.2041 99.508 30.0543 99.3591C30.0543 99.3591 30.204 98.0189 30.803 96.8277L31.7015 94.4452L33.4984 95.3387C36.7928 96.8277 42.7825 104.571 44.1302 108.889C44.4296 110.08 44.7291 110.08 48.7722 110.527C51.1681 110.825 52.965 110.825 52.965 110.527C52.8152 110.378 52.5158 110.08 52.366 109.931C51.7671 109.931 47.2748 107.251 45.9271 105.911C45.6276 105.613 45.0286 105.017 44.8789 104.869C44.5794 104.571 43.3814 103.38 42.3332 102.039C41.285 100.699 40.0871 99.508 39.7876 99.508C39.6379 99.3591 39.1886 98.9124 38.8891 98.3168C38.1404 96.381 40.2368 96.381 45.6276 98.4656C48.323 99.6569 50.5691 100.699 50.8686 100.997C51.1681 101.295 51.767 101.89 52.8152 102.337C54.6121 103.231 58.3557 107.847 58.3557 109.038C58.3557 109.634 57.9065 110.08 57.4573 109.931C55.2111 110.378 61.9496 111.718 65.5434 111.718C67.9393 111.718 70.7844 111.867 71.6829 111.867C73.4798 112.165 73.3301 112.016 70.9342 110.229C64.1957 105.017 64.046 97.7211 70.7844 101.444C73.33 102.784 77.6726 108.591 78.1218 111.123C78.4213 112.612 78.5711 112.761 82.4644 113.654C84.7105 114.101 87.8551 115.143 89.5023 115.59C92.3474 116.632 92.9464 116.632 91.1495 115.441C90.7002 114.994 90.1013 114.398 89.8018 114.101C89.5023 113.803 88.7536 113.058 88.1546 112.761C87.5556 112.463 87.1064 111.718 86.8069 111.42C86.8069 111.123 86.6572 110.676 86.3577 110.676C86.2079 110.527 84.8602 109.187 83.9618 107.4C82.9136 105.762 81.7157 104.273 81.5659 104.124C81.4162 103.975 80.6674 103.231 80.2182 102.188C78.8705 99.9547 76.0254 98.019 72.1321 97.1255C68.089 96.0832 66.5916 96.381 63.2972 98.7635C59.8532 101.295 56.4091 101.444 51.767 99.8058C48.3229 98.4657 48.1732 98.3167 48.7722 97.1255C49.0717 96.2321 50.4194 95.4876 51.9168 94.892C54.6122 93.9985 62.9978 93.4029 64.4952 93.9985C64.7947 94.2963 67.1906 94.5941 69.287 94.8919C71.3834 95.1898 74.0788 95.7854 75.127 96.2321C77.3731 97.2744 77.3731 96.9766 76.0254 95.0408C75.2767 94.2963 74.2285 92.3606 73.4798 90.7226C72.2818 88.3401 69.287 85.362 67.3403 84.6175C67.0408 84.3197 66.2921 85.0642 65.6931 86.2555C64.6449 88.7869 61.0511 91.4671 59.5537 91.1693C58.9547 90.8715 58.0563 90.2759 57.9065 89.5314C57.3075 88.638 57.4573 88.1912 58.9547 86.4044C60.0029 85.362 61.2009 84.1708 61.7998 83.5752L62.848 82.5329C62.9978 82.6818 58.5055 80.8949 58.5055 80.8949L54.0132 79.108L52.5158 81.1927C50.7188 83.5752 45.1784 87.2978 41.5845 88.7869C40.0871 89.3825 37.8409 89.8292 36.3435 89.8292H33.6481L33.9476 87.4467C34.0974 85.511 34.3969 84.9153 36.1938 83.4263C38.1404 81.4905 41.7343 80.0015 45.9271 78.8102C47.8737 78.3635 48.6225 77.9168 48.323 77.3212C48.0235 76.7256 47.724 76.7256 46.9753 77.1723C46.3763 77.7679 45.9271 77.619 45.3281 77.0234C44.4296 76.1299 40.0871 75.3854 38.2902 75.981C35.1456 77.0234 24.5138 78.6613 21.9682 78.5124C16.7272 78.0657 17.0267 77.1723 22.1179 77.4701C24.8133 77.4701 31.2523 76.4277 32.1507 75.5343C32.3005 75.3854 32.7497 75.2365 33.0492 75.5343C33.1989 75.6832 33.9476 75.5343 34.6963 75.3854C35.2953 75.0876 35.5948 74.7898 35.2953 74.7898C34.3969 74.492 19.4226 75.6832 18.5241 76.2788C17.1764 77.0234 17.1764 75.8321 18.5241 74.1942C20.7702 71.9606 24.3641 71.365 30.9528 71.9606L36.1938 72.4073L33.6481 69.876C32.5999 68.238 31.1025 66.749 30.803 66.4511C30.5035 66.1533 29.9046 65.5577 29.6051 64.9621C29.3056 64.3665 28.4071 63.1752 27.6584 62.4307C26.161 60.9417 26.3107 59.3037 27.8082 59.0059C29.6051 58.7081 35.8943 62.2818 38.8892 64.9621C39.1886 65.2599 39.7876 65.8555 40.0871 66.1533C40.3866 66.4511 40.8358 66.8978 41.1353 67.1956C41.7343 67.7913 42.9322 68.9825 44.7291 70.7694C45.4779 71.5139 46.6758 72.7051 47.4245 73.4496C48.1732 74.1942 48.9219 75.2365 49.2214 75.8321C49.5209 77.0234 52.2163 78.2146 53.1147 77.619C53.4142 77.3212 54.0132 77.3212 54.4624 77.4701C54.7619 77.7679 55.0614 78.0657 54.6121 78.2146C54.3127 78.5124 54.7619 78.9591 55.9598 79.2569C58.3557 80.1504 58.6552 79.5548 57.008 77.619C54.1629 74.1942 54.1629 70.6205 57.008 71.6628C57.9065 71.9606 58.5055 72.5562 58.206 72.854C58.0562 73.003 58.5055 73.7475 58.9547 74.1942C60.4521 75.6832 63.5967 80.2993 63.447 81.0438C63.1475 81.3416 64.3455 81.9372 65.8429 82.8306C67.4901 83.5752 68.5383 83.7241 68.688 83.2774C68.9875 82.9796 68.8378 82.5328 68.3885 82.3839C68.2388 82.235 66.8911 79.7037 65.5434 76.5767C64.1957 73.4496 62.848 70.9183 62.6983 70.7694C61.9496 70.3227 53.7137 71.0672 53.1147 71.365C52.8153 71.6628 50.5691 70.9183 48.0235 69.8759C39.1886 66.1533 39.0389 62.1329 47.4245 61.8351C48.7722 61.6862 50.4194 61.8351 51.3178 61.8351C53.1147 62.1329 58.206 64.2176 59.5537 65.2599C60.4521 66.1533 60.4521 66.1533 60.1527 64.6643C59.2542 61.984 55.8101 58.5592 52.8153 56.7723C51.1681 55.73 49.0717 54.5388 48.3229 54.092C46.9753 53.0497 46.6758 53.0497 45.6276 54.092C43.9804 55.73 36.9425 58.2614 34.8461 57.9636C32.3005 57.8147 31.2523 56.7723 32.001 55.4322C32.5999 53.9431 35.8943 51.5606 39.1886 50.3694C40.3866 49.7738 40.9856 49.476 40.6861 49.1782C36.7927 47.0935 35.445 46.9446 33.3486 48.1359C28.2574 51.1139 20.92 53.3475 19.2728 52.603C15.9785 51.1139 18.2246 47.987 23.7651 46.0512L27.0594 44.86L24.3641 43.9665C22.4174 43.222 20.92 43.222 18.5241 43.8176C16.8769 44.2643 15.3795 44.2643 15.08 43.9665C14.7805 43.6687 14.6308 43.5198 14.481 43.9665C14.1816 44.2643 13.8821 44.2643 13.2831 43.6687C12.6841 43.0731 12.3846 43.0731 12.3846 43.3709C12.5344 44.1154 4.14878 40.2439 3.69955 39.2016C3.40006 38.6059 4.59799 38.9037 7.59285 40.095C12.0851 41.8818 17.3262 42.9242 19.5723 42.1797C20.321 42.0308 20.7702 41.584 20.7702 41.2862C20.321 39.9461 11.037 36.0746 8.04211 35.7768C6.54468 35.7768 6.84415 35.7768 9.24004 36.6702C12.6841 37.7125 14.3313 39.3505 11.4862 38.9038C10.5877 38.6059 8.19182 38.0103 5.94567 37.2658C3.99901 36.5213 1.90263 36.2235 1.75289 36.3724C1.4534 36.6702 1.00417 36.8191 0.554936 36.6702C-1.39172 35.9256 2.05238 34.5855 6.69441 34.4366C11.037 34.2877 11.7857 34.4366 15.9785 36.2234C18.5241 37.2658 21.0697 38.9038 21.9682 39.7972C23.6154 41.4352 30.0543 44.2643 31.5517 43.9665C32.3004 43.8176 32.4502 43.6687 31.5517 43.3709C29.1558 42.1797 27.3589 40.9884 24.5138 37.8614C21.2195 34.5855 19.722 31.9052 20.321 31.3096C20.6205 31.0118 20.6205 30.714 20.1713 30.2673C19.2728 29.3739 20.0215 27.7359 21.6687 27.2892C24.5138 26.2469 30.803 26.5447 34.0974 27.7359L35.4451 28.1826L34.5466 26.6936C33.9476 25.8001 33.4984 25.0556 32.8994 25.0556C32.7497 24.9067 31.8512 24.0133 30.9528 23.1198C29.7548 21.9286 28.5569 20.7374 25.2625 19.5461C23.0164 18.5038 20.6205 17.3126 20.0215 17.0148C15.9785 13.8878 15.08 12.9943 13.7323 10.7608C12.9836 9.42063 12.0852 8.22936 11.6359 8.08046C11.4862 7.93155 11.1867 7.63377 11.4862 7.03815C11.7857 6.74034 11.4862 6.14472 11.1867 5.84691C10.8872 5.5491 10.7375 5.40018 11.4862 5.25128C12.0852 4.95347 12.6841 5.54908 13.5826 7.33593C14.3313 8.67607 15.9785 10.9097 17.4759 12.1009C20.0215 14.6323 26.3107 18.8016 27.6584 18.9505C28.4071 19.0994 20.92 9.86734 20.0215 9.56953C19.8718 9.42062 19.2728 9.12279 18.9733 8.82498C18.6738 8.52717 17.1764 7.03814 15.5292 5.69799C14.1816 4.35785 12.3846 2.86879 11.7857 2.57098C11.0369 1.82646 11.0369 1.82647 11.6359 2.7199C12.3846 3.76223 12.2349 4.80456 11.3364 4.50675C10.7375 4.20894 9.68927 1.37973 9.98875 0.486304C10.2882 0.188495 10.5877 -0.109297 11.3364 0.0396082L10.8872 1.37974ZM19.4226 8.08048C20.0215 8.37829 20.0215 8.08047 19.4225 7.48485C18.2246 6.29361 17.4759 5.84689 18.0749 7.03813C18.5241 7.48484 18.9733 7.93155 19.4226 8.37826V8.08048ZM21.0697 9.71842C22.1179 10.7608 22.4174 10.4629 21.519 9.2717C20.92 8.67608 20.6205 8.37828 20.6205 8.67609C20.4707 8.82499 20.7702 9.42062 21.2195 9.86733L21.0697 9.71842ZM22.5672 10.6119C22.2677 11.5053 22.2677 11.5053 23.6154 11.6542C24.5138 11.6542 24.5138 11.6542 24.0646 10.6119C23.6154 10.1651 22.8666 9.42062 22.5672 9.12281C21.9682 8.825 21.8184 8.9739 22.2677 9.42061C22.5672 9.71842 22.5672 10.314 22.4174 10.7607L22.5672 10.6119ZM31.2523 32.9475C33.4984 33.0965 35.4451 33.5432 35.7446 33.5432C36.0441 33.841 36.7928 33.6921 37.3917 33.3943C38.4399 32.9476 38.1404 32.6498 34.3969 31.0118C32.5999 30.1184 27.2092 29.5228 24.0646 29.9695L21.8185 30.1184L24.5138 31.3096C26.161 32.0541 28.7066 32.7987 31.1025 33.0965L31.2523 32.9475ZM28.1076 38.457C29.9046 40.2439 30.2041 40.5417 29.1559 39.7972C28.2574 39.2016 27.2092 39.0527 26.9097 39.3505C26.6102 39.6483 26.6102 39.6483 27.2092 39.6483C27.6584 39.4994 27.9579 39.7972 27.6584 40.095C27.3589 40.6906 30.9528 43.3709 34.8461 45.4556C36.643 46.349 37.3917 46.4979 37.5415 46.0512C38.1404 44.8599 29.7548 37.4147 26.161 35.9256C24.5138 35.1811 25.1128 36.0746 27.9579 38.6059L28.1076 38.457ZM19.1231 52.7519C20.1713 53.1986 31.1025 48.5826 30.9528 47.838C30.6533 47.2424 21.3692 49.3271 19.8718 50.2205C18.2246 51.2628 17.7754 52.3052 19.1231 52.7519ZM33.0492 38.9038C32.8994 39.0527 33.0492 39.4994 33.4984 39.3505C34.2471 39.2016 37.5415 42.7753 39.4881 46.2001C40.5363 47.838 41.7343 49.3271 42.1835 49.476C42.9322 49.9227 42.9322 49.6249 42.1835 48.5826C40.3866 45.9023 41.1353 41.584 42.9322 42.4775C43.8307 42.7753 46.2266 48.1358 46.6758 50.6672C46.8255 51.4118 47.724 52.603 48.4727 53.0497C49.0717 53.6453 50.4194 54.3898 51.1681 54.8365C51.767 55.4322 53.1147 56.1767 53.8634 56.6234L55.3609 57.5168L54.0132 54.6877C52.8153 52.3052 51.4676 50.0716 47.125 44.2643C43.2317 38.9037 43.5312 39.2016 38.7394 38.3081C37.5415 38.0103 37.0922 37.8614 37.5415 37.1169C37.8409 36.8191 38.5897 36.0746 39.6379 36.2235C40.6861 36.0746 41.1353 35.9257 40.8358 35.9257C40.5363 35.6279 39.9373 35.33 39.6378 35.0322C39.1886 34.5855 38.1404 34.7344 37.0922 35.1811C34.6964 36.0746 31.7015 36.3724 30.2041 35.7768C29.6051 35.4789 29.9046 36.0746 31.2523 36.8191C32.4502 37.7125 33.3487 38.6059 33.3487 38.9038H33.0492ZM16.5775 99.3591C17.7754 100.253 19.4226 101.295 20.0215 101.89C20.6205 102.486 21.8185 103.082 22.2677 103.528C22.7169 103.975 23.9149 104.273 24.3641 104.422C25.2625 104.422 25.4123 104.273 24.963 103.826C24.5138 103.38 24.2143 103.082 24.0646 102.933C24.0646 102.933 23.3159 102.188 22.5672 101.444C20.7702 99.6569 14.7805 96.6788 14.6308 97.4233C14.481 97.5722 15.3795 98.7635 16.7272 99.508L16.5775 99.3591ZM32.7497 68.3869C34.2471 69.876 35.8943 71.5139 36.1938 71.8117C36.7927 72.1095 37.3917 72.7051 37.5415 73.1519C37.8409 73.4497 38.5897 74.1942 39.4881 74.492L41.1353 74.9387L39.7876 73.5986C39.0389 72.854 38.2902 72.1095 37.9907 71.8117C37.6912 71.5139 36.4933 70.3227 34.9958 68.8336C33.4984 67.3446 31.8512 65.7066 31.1025 65.2599C29.0061 63.473 29.9046 65.2599 32.6 68.5358L32.7497 68.3869ZM35.1456 57.6657C35.8943 57.8147 37.5415 57.6658 38.7394 57.0701C42.3332 55.2833 45.4778 50.6672 42.0337 52.0074C41.1353 52.3052 40.9855 52.7519 41.285 52.7519C42.483 53.3475 41.5845 53.9431 39.1886 54.2409C37.8409 54.3898 36.643 54.3898 36.4933 53.9431C35.8943 53.3475 34.3969 54.5388 33.9476 55.8789C33.6481 56.7723 33.9476 57.0701 35.1456 57.3679L35.1456 57.6657ZM39.1886 70.0248C40.5363 71.365 42.0338 72.854 42.6327 73.4497C43.3814 74.7898 46.2265 76.1299 45.7773 75.0876C45.1783 73.8964 42.3333 70.4716 41.2851 69.727C40.8358 69.2803 39.4881 68.5358 38.7394 68.0891C35.1456 65.4088 35.2953 65.5577 36.044 66.8978C36.4933 67.3446 37.841 68.9825 39.3384 70.1738L39.1886 70.0248ZM60.9014 20.1418C60.3024 22.2264 59.8532 24.46 60.1527 25.3534L60.3024 26.9914L61.7998 25.5023C62.9978 24.9067 64.3455 22.9709 65.5434 21.7797C67.6398 18.8016 67.6398 16.717 65.8429 12.5476C64.4952 9.42062 63.8962 9.71841 62.848 13.7388C62.3988 15.3768 61.6501 18.206 61.0511 20.2907L60.9014 20.1418ZM20.4708 113.654C21.2195 113.207 21.5189 113.207 21.3692 113.654C20.6205 115.292 26.4605 116.036 30.2041 114.696C36.4933 112.314 34.6964 111.123 27.3589 112.463C24.5138 112.909 21.9682 113.356 21.8184 113.207C20.7702 112.463 20.0215 112.612 19.722 113.505C19.4226 114.398 19.4226 114.398 20.4708 113.654ZM44.2799 67.0468C47.4245 69.2803 51.4676 70.6205 54.6122 70.1737C56.2593 70.0248 57.4573 69.727 57.4573 69.4292C57.4573 69.4292 56.1096 68.9825 54.6122 68.6847C53.1147 68.3869 51.767 67.9402 51.6173 67.7913C51.3178 67.4935 54.1629 67.3446 56.5588 67.9402C57.4573 68.238 58.206 68.0891 58.3557 67.9402C58.5055 67.7913 57.9065 67.1956 57.1578 66.7489C56.4091 66.3022 55.2111 65.7066 54.3127 65.4088C51.6173 63.9197 42.9322 63.9197 42.9322 65.4088C42.9322 65.7066 43.5312 66.6 44.5794 67.3446L44.2799 67.0468ZM25.2625 111.867C26.76 111.569 27.8082 111.123 27.9579 110.974C27.6584 110.676 23.0164 111.718 22.8666 112.165C22.8666 112.165 24.0646 112.165 25.4123 111.718L25.2625 111.867ZM34.6963 89.9781C36.1938 90.8715 41.884 88.489 45.6276 85.0642C51.3178 80.2993 50.7188 79.4058 43.9804 82.235C40.8358 83.5752 37.3917 85.2131 36.3435 85.9576C34.2471 87.4467 33.4984 89.3825 34.6963 89.9781ZM57.607 34.7344C57.607 34.7344 57.9065 34.4366 58.3557 33.9899C58.6552 33.6921 58.805 33.5432 58.3557 33.3943C57.7568 33.3943 57.1578 34.5855 57.4573 34.5855L57.607 34.7344ZM56.5588 37.5636C56.5588 38.457 56.7086 38.6059 59.7034 38.3081C61.5003 38.3081 64.4952 37.4147 66.5916 36.5213C69.7362 35.1811 70.3352 34.5855 70.6347 33.3943C70.9342 32.203 71.0839 32.0541 71.3834 32.6497C71.8326 33.0965 71.9824 33.2454 72.4316 33.0965C73.0306 32.5008 71.2336 31.3096 69.5865 31.1607C68.688 31.1607 68.2388 31.0118 68.2388 30.714C68.5383 30.4162 62.2491 31.6074 61.2009 32.3519C60.6019 32.9476 59.8532 32.7987 59.8532 32.5009C59.7034 32.3519 59.7034 32.3519 59.5537 32.7987C59.5537 33.3943 58.9547 34.2877 58.206 34.7344C57.2077 35.5286 56.6587 36.3724 56.5588 37.2658L56.5588 37.5636ZM32.1507 100.55C32.5999 103.38 35.1456 106.507 38.2902 108.144C39.6379 108.889 40.686 109.336 40.8358 109.187C41.1353 108.293 40.9856 106.953 40.3866 106.655C40.0871 106.358 39.1886 105.464 38.7394 104.422C38.2902 103.38 37.5415 102.337 37.3917 102.188C37.3917 102.188 36.4932 101.295 36.044 100.55C35.1456 99.0613 33.7979 98.019 32.6 97.7211C31.8512 97.5722 32.001 98.0189 32.4502 100.55H32.1507ZM60.0029 40.095C60.1526 40.2439 61.2008 40.095 61.7998 39.7972C62.9978 39.4994 62.9978 39.4994 61.5003 39.4994C59.7034 39.4994 59.2542 39.6483 60.0029 40.095ZM43.9804 103.38C46.8255 106.209 50.5691 109.336 53.2645 110.229C54.1629 110.527 54.4624 110.527 54.3127 110.378C54.0132 110.08 52.6655 109.038 51.1681 107.847C49.8204 106.507 48.6224 105.315 48.6224 105.315C48.7722 105.166 49.3712 105.166 49.8204 105.613C50.5691 106.358 50.7188 106.209 50.4194 105.613C50.1199 104.72 49.3712 104.273 46.5261 102.337C45.1784 101.593 42.483 100.104 41.7343 99.9547C40.6861 99.8058 41.1353 100.55 43.6809 103.38L43.9804 103.38ZM34.8461 123.184C37.5414 124.077 38.7394 124.077 38.7394 123.482C38.5897 123.333 39.6379 122.588 41.1353 122.588C42.483 122.439 44.4296 121.695 45.3281 121.099C48.1732 119.163 51.767 115.888 51.6173 115.441C51.0183 113.952 33.9476 119.908 33.6481 121.695C33.4984 122.439 33.9476 122.886 34.9958 123.035L34.8461 123.184ZM65.9926 62.4307C66.1424 64.0686 66.4419 64.6643 66.5916 63.9198C66.7413 63.1752 67.4901 60.6439 68.3885 58.2614C70.0357 53.9431 70.3352 52.1563 69.287 52.3052C69.1372 52.4541 67.9393 53.9431 67.1906 55.8789C65.8429 58.7081 65.6931 60.0482 65.9926 62.4307ZM49.5209 99.6569C51.0183 101.146 53.1147 101.444 55.9598 100.997C59.1045 100.55 61.6501 99.508 60.6019 99.0613C60.4521 98.9124 60.0029 98.4657 60.0029 97.87C60.1527 97.1255 60.1527 97.1255 61.0511 97.7211C61.5003 98.1679 62.3988 98.4657 62.6983 98.1679C63.2973 97.5722 59.404 96.381 57.0081 96.381C53.4142 96.381 49.2214 97.2744 48.7722 98.019C48.4727 98.3168 48.9219 99.0613 49.2214 99.3591L49.5209 99.6569ZM67.6398 67.0467C67.7896 69.8759 67.3403 70.9183 66.7413 69.4292C66.4418 68.8336 66.2921 68.0891 66.2921 67.4935C66.4418 66.7489 66.1424 66.7489 65.9926 67.4935C65.5434 68.5358 66.5916 71.0672 67.3403 70.6205C67.4901 70.4716 67.9393 70.9183 68.2388 71.5139C68.5383 72.7051 68.688 72.5562 69.886 71.365C71.2336 70.0248 72.8808 65.4088 72.4316 64.0687C72.1321 63.7708 72.2819 63.0263 72.4316 62.5796C72.7311 62.2818 72.4316 60.4949 72.1321 58.7081L71.3834 55.5811L69.886 58.5592C68.2388 61.6862 67.7895 63.0263 67.9393 66.7489L67.6398 67.0467ZM77.0736 51.4117C77.2233 51.5607 77.6726 52.0074 81.5659 55.8789C83.2131 57.5168 84.5608 58.2614 87.8551 59.4526C92.0479 60.9416 95.492 61.3884 95.3423 60.346C95.1925 60.1971 94.893 59.8993 94.7433 59.7504C94.5936 59.8993 93.9946 59.3037 93.5453 58.5592C92.7966 57.5168 92.9464 57.3679 93.6951 57.8147C95.492 58.4103 95.0428 57.3679 92.7966 55.4322C90.7002 53.6453 87.4059 52.1563 82.3146 50.3694C77.8223 48.8804 76.7741 48.7315 76.7741 49.9227C76.7741 50.5183 76.7741 51.1139 77.0736 51.1139L77.0736 51.4117ZM89.8018 32.203C90.1013 34.8833 96.5402 50.8161 97.4387 51.4117C97.5884 51.5607 98.1874 51.8585 98.7863 52.1563C99.6848 52.7519 100.583 51.2629 99.9843 50.0716C99.6848 49.7738 99.8345 49.3271 100.134 49.3271C100.434 49.6249 99.6848 44.711 98.6366 41.584C98.3371 40.3928 98.1874 39.3504 98.3371 39.2015C98.4869 39.0526 98.1874 38.457 97.4387 38.0103C96.5402 37.1169 96.3905 36.968 96.9894 36.6702C98.0377 36.2235 97.7382 35.33 96.5402 35.33C95.9412 35.33 95.7915 35.1811 96.3905 34.5855C96.8397 34.1388 96.8397 33.841 96.2407 33.5432C95.9412 33.2454 95.6417 32.9476 96.091 32.7987C96.3905 32.5008 96.3905 32.5008 95.7915 32.203C95.3423 32.0541 94.294 30.714 93.5453 29.076C91.8982 25.3534 91.2992 24.46 90.4007 24.7578C89.652 24.9067 89.3525 28.4804 89.8018 32.5009V32.203ZM56.2593 123.631C59.4039 123.482 61.9496 122.142 64.6449 119.163C65.8429 117.972 65.6931 118.121 59.8532 120.057C54.0132 122.29 54.4624 121.248 60.7516 118.27C65.2439 116.185 65.3937 116.036 62.848 116.483C61.3506 116.781 59.4039 117.525 58.5055 117.823C56.5588 118.866 52.965 122.737 53.4142 123.184C53.564 123.333 54.9117 123.482 56.2593 123.333L56.2593 123.631ZM85.609 71.5139C86.8069 72.7051 87.7054 73.8964 88.0049 73.8964C88.0049 73.8964 89.2028 75.0876 90.5505 76.4278C91.8982 77.7679 92.9464 78.8102 93.2459 78.8102C93.9946 78.6613 93.5453 76.7256 92.0479 74.3431C91.2992 73.3008 90.5505 71.9606 90.4008 71.5139C90.1013 71.2161 89.2028 69.727 88.3043 68.5358C87.4059 67.3446 86.8069 66.1533 86.6572 66.0044C86.5074 65.2599 81.5659 61.5373 80.6674 61.5373C79.4695 61.5373 83.0633 68.6847 85.609 71.5139ZM67.7895 104.72C67.9393 104.869 68.089 104.422 67.7895 103.826C67.49 103.231 67.1906 102.635 67.0408 102.486C66.8911 102.337 66.7414 102.784 67.0408 103.38C67.3403 103.975 67.6398 104.571 67.7895 104.72ZM66.1424 114.696C66.7413 114.696 66.8911 114.547 67.0408 114.398C67.0408 114.398 66.5916 113.952 66.1424 114.101C65.0942 114.25 65.0942 114.547 66.1424 114.696ZM90.4007 69.727C90.85 70.7694 90.9997 70.6205 90.5505 69.5781C90.251 68.3869 89.8018 67.9402 89.652 68.3869C89.652 68.3869 89.8018 69.1314 90.1013 69.727L90.4007 69.727ZM81.5659 103.826C85.3095 108.74 88.3043 112.314 91.2992 115.292L93.5453 117.525L92.9464 115.739C92.0479 113.058 91.8982 111.123 92.1977 107.549C92.4972 104.571 92.3474 104.422 90.5505 103.528C86.9566 102.039 84.1115 100.104 83.3628 99.0613C81.7157 96.8277 80.9669 96.381 79.9187 97.4233C78.2716 99.0613 78.2716 99.3591 81.4162 103.677L81.5659 103.826ZM84.8603 95.7854C85.1597 96.0832 85.4592 96.381 85.3095 96.5299C85.1597 96.6788 85.4592 97.2744 85.9084 97.4233C86.3577 97.5722 86.5074 98.019 86.6572 98.1679C86.3577 99.0613 85.9084 98.6146 83.9618 96.0832C82.9136 94.743 82.1649 94.2963 82.3146 94.743C82.3146 96.5299 91.5987 103.975 92.3474 102.337C92.6469 102.039 92.4971 101.593 92.0479 101.444C91.7484 101.146 91.4489 100.848 91.1495 100.848C90.85 100.848 90.5505 100.253 90.251 100.253C90.1012 100.104 89.3525 98.7635 88.7536 97.2744C87.8551 95.1898 87.5556 94.5941 86.8069 95.0408C86.2079 95.6365 86.0582 95.4876 86.3577 94.892C86.6572 94.5941 86.2079 94.1474 85.7587 94.2963C85.1597 94.2963 84.8603 93.9985 84.7105 93.5518C84.7105 93.254 84.2613 92.8073 83.6623 92.5095C83.0633 92.2116 82.9136 92.3606 83.6623 93.7007C84.1115 94.4452 84.8602 95.4875 85.1597 95.4875L84.8603 95.7854ZM101.781 54.8366C101.781 55.4322 102.979 54.8366 104.926 53.1986C107.471 50.6672 113.012 48.1359 114.06 48.5826C114.659 48.8804 114.509 49.0293 111.365 50.3694C108.37 51.5607 106.423 52.9008 104.327 55.2833C102.979 56.6234 103.578 56.6234 107.921 55.2833C112.113 53.7942 116.007 51.7095 116.306 50.5183C116.606 50.2205 116.905 49.9227 117.055 50.0716C117.354 50.3694 117.354 50.3694 117.504 49.6249C117.504 49.0293 117.804 48.4337 118.253 48.2848C119.002 47.838 121.248 44.711 120.799 44.5621C120.2 44.2643 113.761 45.9023 111.065 47.0935C106.723 49.0293 104.477 50.3694 102.829 52.603C101.931 53.4964 101.582 54.3402 101.781 55.1344L101.781 54.8366ZM88.4541 94.8919C88.9033 94.743 87.7054 92.6584 86.8069 91.7649C85.9085 90.8715 85.9085 91.1693 86.9567 92.8073C87.7054 93.8496 88.4541 94.892 88.6038 94.743L88.4541 94.8919ZM89.5023 96.5299C89.9515 97.5722 90.1012 97.4233 89.652 96.381C89.3525 95.1898 88.9033 94.743 88.7536 95.1897C88.7536 95.1897 88.9033 95.9343 89.2028 96.5299H89.5023ZM102.23 70.4716C104.477 68.5358 108.969 66.1533 109.568 66.4511C109.568 66.4511 108.819 67.1956 107.471 67.6424C105.225 68.6847 102.23 70.7694 101.482 71.8117C101.332 71.9606 100.733 72.5562 100.284 73.0029C99.2356 74.0453 103.728 71.9606 108.52 69.2803C110.466 68.238 112.263 67.3446 112.563 67.3446C113.162 67.6424 116.007 64.8132 117.504 62.4307C118.702 60.6439 118.702 60.6438 117.205 60.0482C115.558 59.3037 110.616 60.6438 107.921 62.4307C107.022 63.3241 105.076 64.9621 104.027 66.3022C99.6848 71.2161 98.9361 72.854 102.081 70.0248L102.23 70.4716ZM110.317 56.1767C110.916 55.8789 111.964 55.4322 112.413 54.9855C113.012 54.3898 112.712 54.6877 111.365 55.1344C108.969 56.3256 108.669 56.6234 110.317 56.1767ZM99.535 85.6599C101.931 85.0642 107.771 81.9372 108.22 81.1927C108.52 80.2993 107.322 80.2993 104.177 81.0438C101.182 81.6394 98.4869 83.4263 97.7381 85.362C97.4387 86.2555 97.4386 86.2555 99.535 85.6599ZM96.8397 96.9766C97.5884 96.5299 99.2356 95.4875 100.284 94.743C101.182 93.8496 102.829 93.1051 103.728 92.8073L105.225 92.2116L103.279 93.5518C102.38 94.4452 100.134 96.0832 98.3371 97.5722C96.8397 99.0613 95.0428 99.9547 94.7433 99.9547C94.5936 99.8058 93.9946 100.104 93.9946 100.699C93.3956 101.89 94.7433 101.444 98.0376 99.3591C101.332 96.9766 105.525 93.1051 105.974 91.4671C106.274 90.5737 106.124 90.4248 105.076 90.5737C104.177 90.5737 103.878 90.5737 104.027 90.127C104.327 89.8292 103.728 89.8292 102.829 90.127C101.931 90.4248 101.332 90.7226 101.182 91.1693C101.033 91.3182 101.482 91.4671 102.38 91.1693C104.327 90.4248 103.878 91.1693 101.931 92.2116C99.5351 93.4029 96.2407 95.7854 95.6417 96.9766C95.1925 97.7211 95.3423 97.87 96.69 97.1255L96.8397 96.9766ZM107.921 71.9606C107.921 71.9606 108.22 71.6628 108.669 71.2161C108.969 70.9183 109.119 70.7694 108.669 70.6205C108.07 70.6205 107.471 71.8117 107.771 71.8117L107.921 71.9606ZM96.2407 119.015C96.8397 119.908 97.1392 119.908 99.2356 118.121C101.931 115.441 102.979 113.803 100.284 116.185C97.7381 118.419 96.8397 118.717 97.4387 117.228C97.7382 116.632 99.3853 114.994 101.182 113.505C104.027 111.569 104.477 110.825 105.375 108.442C106.423 105.613 106.423 105.613 104.776 106.06C104.027 106.209 102.23 107.102 101.032 107.996C98.9361 109.485 98.6366 109.782 97.2889 113.803C96.091 117.079 95.9412 118.419 96.3905 119.163L96.2407 119.015Z" fill="#2E322D" fill-opacity="0.3"/>
<path d="M50.7193 28.7782C51.1685 29.8205 51.468 30.714 51.1685 30.714C50.8691 31.0118 50.1204 29.6716 49.9706 28.3315C49.8209 26.9913 49.9706 27.1402 50.5696 28.9271L50.7193 28.7782Z" fill="#2E322D" fill-opacity="0.3"/>
<path d="M64.3451 13.1432C64.4949 13.8877 64.3451 15.2279 64.0456 16.1213L63.2969 17.7592V15.6746C63.2969 14.4833 63.4467 13.1432 63.5964 12.6965C63.8959 12.1009 64.1954 12.1009 64.1954 13.2921L64.3451 13.1432Z" fill="#2E322D" fill-opacity="0.3"/>
<path d="M35.2947 102.784C36.3429 103.231 38.5891 105.464 38.4393 105.911C38.1398 106.804 37.2414 106.506 35.7439 105.315C34.9952 104.571 34.2465 103.826 34.546 103.231C34.8455 102.933 35.145 102.635 35.2947 102.486L35.2947 102.784Z" fill="#2E322D" fill-opacity="0.3"/>
<path d="M37.5407 120.504C40.3858 119.461 44.8781 118.27 46.675 118.27C49.5202 118.121 47.1243 119.312 42.1827 120.355C36.0433 121.993 33.0484 121.993 37.5407 120.504Z" fill="#2E322D" fill-opacity="0.3"/>
<path d="M36.1943 122.142C36.7933 122.142 37.542 122.29 37.6918 122.439C37.9913 122.737 37.542 122.588 36.7933 122.737C35.8949 122.737 35.1462 122.588 35.2959 122.439C35.2959 122.439 35.5954 122.142 36.1943 122.142Z" fill="#2E322D" fill-opacity="0.3"/>
<path d="M96.39 42.3286C96.8392 42.7753 97.1387 43.6687 97.2885 44.1154C97.4382 44.5621 96.989 44.1154 96.39 43.222C95.1921 41.4352 95.1921 40.8396 96.39 42.3286Z" fill="#2E322D" fill-opacity="0.3"/>
<path d="M85.0108 66.1533C87.4067 69.1314 90.1021 73.5986 89.2036 73.3008C88.3051 73.003 85.6097 69.7271 85.1605 68.3869C84.7113 67.6424 84.1123 66.4512 83.3636 65.7066C82.6149 64.9621 82.3154 64.0687 82.3154 63.7709C82.6149 63.4731 83.5133 64.3665 84.861 66.3023L85.0108 66.1533Z" fill="#2E322D" fill-opacity="0.3"/>
</svg>
